<?xml version="1.0" encoding="utf-8"?>
<!-- Generator: Adobe Illustrator 16.0.0, SVG Export Plug-In . SVG Version: 6.00 Build 0)  -->
<!DOCTYPE svg PUBLIC "-//W3C//DTD SVG 1.1//EN" "http://www.w3.org/Graphics/SVG/1.1/DTD/svg11.dtd">
<svg version="1.1" id="图层_1" xmlns="http://www.w3.org/2000/svg" xmlns:xlink="http://www.w3.org/1999/xlink" x="0px" y="0px"
	 width="208px" height="35px" viewBox="0 0 208 35" enable-background="new 0 0 208 35" xml:space="preserve">
<g>
	<path fill="#FFFFFF" d="M89.08,17.498c0,9.173-7.242,17.426-18.143,17.426c-10.901,0-18.143-8.253-18.143-17.426
		c0-9.176,7.241-17.422,18.143-17.422C81.837,0.076,89.08,8.322,89.08,17.498 M81.772,17.498c0-10.684-4.063-17.16-10.835-17.16
		c-6.769,0-10.831,6.477-10.831,17.16c0,10.682,4.063,17.16,10.831,17.16C77.709,34.658,81.772,28.18,81.772,17.498"/>
	<path fill="#FFFFFF" d="M46.571,9.783c0-4.756-4.278-9.004-13.568-9.004H19.615c-0.037,0-0.103,0.018-0.063,0.162
		c0.033,0.127,0.153,0.273,0.354,0.309c1.233,0.217,2.556,0.879,2.556,3.191l0.012,26.087c0,2.313-1.326,2.969-2.555,3.19
		c-0.204,0.031-0.324,0.175-0.357,0.308c-0.038,0.145,0.028,0.161,0.063,0.161h6.584h5.513c0.039,0,0.1-0.017,0.063-0.161
		c-0.034-0.133-0.155-0.276-0.36-0.308c-1.229-0.222-2.55-0.878-2.55-3.19l-0.011-11.64v-0.264V1.043h3.086
		c5.526,0,8.217,3.174,8.217,8.693c0,5.273-1.938,7.982-5.881,8.691c-1.36,0.244-2.578,0.342-2.578,0.342s1.314,0.139,2.582,0.1
		C42.92,18.592,46.571,14.914,46.571,9.783"/>
	<path fill="#FFFFFF" d="M126.773,33.736c0.193,0.03,0.308,0.173,0.342,0.302c0.033,0.14-0.029,0.149-0.059,0.149h-6.362h-2.652
		c0,0-3.198-6.604-4.44-9.207c-1.702-3.588-2.134-5.648-5.666-6.881c5.362-0.285,7.814-3.396,7.814-8.721
		c0-5.785-2.907-8.336-7.467-8.336h-3.636l-0.005,16.938l0.008,12.546c0,2.317,1.327,2.971,2.557,3.192
		c0.203,0.031,0.318,0.176,0.354,0.308c0.037,0.147-0.024,0.161-0.06,0.161H95.379c-0.035,0-0.094-0.014-0.063-0.161
		c0.037-0.132,0.154-0.276,0.356-0.308c1.233-0.222,2.555-0.875,2.555-3.192l0.011-26.095c0-2.322-1.325-2.977-2.557-3.189
		c-0.198-0.033-0.319-0.184-0.354-0.318c-0.035-0.141,0.026-0.156,0.063-0.156l5.594,0.012h8.458c8.494,0,12.711,3.752,12.711,8.504
		c0,8.646-12.699,8.91-12.699,8.91s7.22-0.162,10.038,5.359c1.835,3.611,3.77,7.291,3.77,7.291c0.803,1.563,1.779,2.324,2.757,2.691
		C126.266,33.629,126.519,33.692,126.773,33.736"/>
	<path fill="#FFFFFF" d="M163.952,34.279l-0.024-5.632V28.58v-6.553c0-0.031,0.017-0.097,0.159-0.058
		c0.127,0.03,0.277,0.149,0.313,0.356c0.016,0.118,0.04,0.23,0.073,0.349c1.281,5.999,4.019,11.983,11.281,11.983
		c5.305,0,8.519-2.761,8.519-6.978c0-2.751-1.38-4.483-3.368-5.706c-0.98-0.604-2.116-1.088-3.306-1.512
		c-1.188-0.435-2.453-0.807-3.716-1.21c-5.08-1.606-9.731-3.399-9.731-9.271c0-5.645,4.776-9.906,10.799-9.906
		c2.295,0,4.048,0.481,5.408,0.977c0.7,0.254,1.289,0.501,1.796,0.693c0.51,0.188,1,0.347,1.45,0.347c1.076,0,1.499-0.483,1.705-1
		c0.042-0.097,0.075-0.188,0.104-0.272c0.029-0.079,0.049-0.117,0.066-0.143h0.082c0.021,0.045,0.063,0.174,0.085,0.473l0.625,6.411
		c0.026,0.241,0.039,0.446,0.029,0.602c0,0.052-0.003,0.097-0.01,0.125c-0.044-0.062-0.107-0.175-0.175-0.331
		c-2.152-4.737-5.936-7.619-11.217-7.619c-3.701,0-6.859,1.66-6.859,5.865c0,2.328,1.465,3.721,3.449,4.699
		c0.979,0.488,2.119,0.889,3.343,1.271c1.194,0.376,2.469,0.729,3.749,1.131c5.108,1.596,9.879,3.773,9.879,10.242
		c0,6.4-5.374,11.377-12.761,11.377c-2.404,0-4.18-0.561-5.606-1.128c-0.732-0.291-1.371-0.58-1.948-0.797
		c-0.587-0.221-1.168-0.396-1.749-0.396c-1.176,0-1.728,0.543-2.065,1.072c-0.074,0.112-0.141,0.229-0.203,0.331
		c-0.044,0.084-0.091,0.16-0.14,0.227L163.952,34.279z"/>
	<path fill="#FFFFFF" d="M158.081,6.279c-0.043-0.006-7.444-5.283-11.164-5.283c0,1.232,0.004,13.443,0.004,13.443v13.24
		l0.007,1.438l0.002,1.439c0,1.133,0.319,1.889,0.816,2.382c0.494,0.483,1.134,0.694,1.742,0.808
		c0.197,0.031,0.316,0.181,0.353,0.305c0.036,0.148-0.03,0.167-0.061,0.167h-6.066h-6.034c-0.037,0-0.098-0.019-0.063-0.167
		c0.036-0.124,0.156-0.273,0.355-0.305c0.607-0.113,1.252-0.324,1.743-0.808c0.494-0.493,0.813-1.249,0.813-2.382l0.002-1.439
		l0.005-1.438l0.008-13.24V0.996c-4.016,0-11.123,5.277-11.146,5.281c-0.036-0.029-0.034-0.039-0.025-0.064l0.542-2.979l0.44-2.471
		h13.376h13.378l0.447,2.471L158.081,6.279z"/>
</g>
</svg>
